<svg xmlns="http://www.w3.org/2000/svg" width="600" height="600"><path fill="#E61413" d="m66.224-.131 2.473-.007Q72.81-.144 76.92-.14l5.948-.01q8.18-.011 16.36-.01 8.818-.005 17.638-.016 20.295-.02 40.591-.025 10.035-.003 20.069-.01a167723 167723 0 0 1 88.209-.03c23.233-.003 46.465-.02 69.698-.042a77350 77350 0 0 1 81.827-.04h2.014q15.03-.004 30.06-.025Q466.44-.37 483.548-.36q8.725.008 17.45-.011a3428 3428 0 0 1 15.995 0q2.883.004 5.766-.01c22.464-.095 42.151 3.838 59.33 19.412 12.517 12.9 18.08 30.699 18.045 48.344l.007 2.487q.009 4.123.006 8.247l.011 5.973q.014 8.207.017 16.415.007 8.852.022 17.704.027 20.367.037 40.734l.015 20.142a151789 151789 0 0 1 .047 88.54q.013 34.974.064 69.948a58803 58803 0 0 1 .058 82.133v2.023q.006 15.082.035 30.166.034 17.17.02 34.34a4262 4262 0 0 0 .017 17.51q.026 8.028.001 16.054-.004 2.892.014 5.784c.12 20.662-3.395 38.79-18.278 54.222L580 582c-.59.624-1.18 1.248-1.79 1.89-4.165 4.075-8.874 6.73-14.022 9.36l-1.938.999c-12.19 5.946-23.784 6.185-37.067 6.145q-3.03.007-6.058.019c-5.531.016-11.062.014-16.593.008-5.972-.002-11.945.012-17.917.025q-17.541.028-35.082.023a30652 30652 0 0 0-32.625.013l-2.057.002-2.061.002-2.065.001q-28.732.024-57.464.018h-2.187l-10.972-.003h-2.2l-4.407-.002q-34.271-.007-68.542.042a48223 48223 0 0 1-87.34.049q-15.255 0-30.512.03-17.36.032-34.723.005c-5.902-.01-11.803-.01-17.705.01q-8.115.028-16.231-.008-2.925-.006-5.848.013C51.822 600.777 33.344 595.816 18 581 3.66 564.294-.768 546.106-.642 524.715q-.01-3.032-.025-6.064c-.023-5.518-.015-11.036-.001-16.554.009-5.966-.01-11.93-.026-17.896-.025-11-.027-21.999-.016-32.998a17434 17434 0 0 0-.001-34.594l-.005-6.177a35863 35863 0 0 1-.004-59.578l.015-17.547q.028-34.212-.022-68.422a39420 39420 0 0 1-.037-85.192l.001-2.044c.005-10.153-.006-20.305-.024-30.458-.02-11.555-.02-23.11.008-34.664.014-5.89.018-11.78-.004-17.67-.02-5.401-.011-10.802.019-16.204a531 531 0 0 0-.014-5.832c-.146-19.942 4.843-38.96 18.774-53.95C31.52 6.245 47.786-.175 66.224-.13M98 92c1.191 3.053 2.32 5.716 4.258 8.363l1.372 1.902 1.495 2.047c5.906 8.214 11.528 16.599 17.09 25.049a419 419 0 0 0 11.82 16.933c3.192 4.397 6.233 8.894 9.278 13.393l3.94 5.801 1.931 2.843c2.51 3.69 5.035 7.368 7.566 11.044l3.94 5.722q3.406 4.95 6.81 9.903l2.75 4 17.874 25.998q1.38 2.01 2.762 4.017a8390 8390 0 0 1 6.688 9.739 3923 3923 0 0 0 16.301 23.558 3237 3237 0 0 1 18.09 26.247c2.484 3.64 4.987 7.269 7.495 10.893 1.79 2.59 3.566 5.188 5.338 7.79a853 853 0 0 0 3.44 4.985l1.95 2.898 1.667 2.445c1.466 3.11 1.62 5.024 1.145 8.43-1.652 2.64-1.652 2.64-3.937 5.25l-2.497 2.89L244 337l-2.285 2.547a1399 1399 0 0 1-4.469 4.926c-2.308 2.597-4.502 5.261-6.683 7.964-3.861 4.774-7.937 9.297-12.094 13.813-2.413 2.687-4.702 5.44-6.969 8.25-3.837 4.756-7.894 9.255-12.031 13.75-2.413 2.687-4.702 5.44-6.969 8.25a223 223 0 0 1-9.5 11c-4.114 4.47-7.97 9.09-11.785 13.816-2.88 3.49-5.922 6.814-8.969 10.157-2.308 2.597-4.502 5.261-6.683 7.964-3.86 4.773-7.935 9.294-12.09 13.81-3.22 3.585-6.232 7.32-9.258 11.07-2.171 2.63-4.417 5.162-6.715 7.683-3.916 4.297-7.588 8.753-11.242 13.273-2.226 2.688-4.53 5.275-6.883 7.852-7.161 6.769-7.161 6.769-11.375 14.875q6.614.26 13.232.385 2.247.052 4.493.143c10.111.65 10.111.65 18.916-3.614A79 79 0 0 0 138 501l1.621-1.757c1.595-1.73 3.115-3.505 4.629-5.306l1.674-1.96q1.71-2.005 3.413-4.016c2.07-2.441 4.156-4.87 6.242-7.297q2.972-3.462 5.937-6.93 4.49-5.246 8.986-10.486 3.735-4.355 7.463-8.713a3816 3816 0 0 1 17.177-19.927A3772 3772 0 0 0 212 415c6.69-7.82 13.398-15.623 20.144-23.394 4.129-4.76 8.234-9.538 12.328-14.328q3.923-4.587 7.887-9.137l1.702-1.953 3.34-3.83a269 269 0 0 0 11.11-13.698L270 347h2c1.246 1.49 1.246 1.49 2.652 3.594l1.587 2.348 1.699 2.558 3.55 5.27 1.796 2.678c2.42 3.598 4.878 7.17 7.341 10.74l4.032 5.86q3.422 4.976 6.843 9.952l2.75 4 27.5 40 10.93 15.895a10060 10060 0 0 1 14.695 21.417l1.633 2.384a2359 2359 0 0 1 8.496 12.488l1.743 2.57q1.637 2.418 3.264 4.841c5.186 8.3 5.186 8.3 12.489 14.405a79 79 0 0 0 4.72.12l3.017.004 3.322-.01h3.489c3.82 0 7.64-.009 11.46-.016l7.928-.005q9.382-.005 18.763-.021 10.68-.016 21.359-.022 21.971-.016 43.942-.05l-3.271-5.167-1.84-2.906c-3.01-4.664-6.198-9.199-9.389-13.74a2209 2209 0 0 1-16.312-23.625l-1.884-2.769-3.617-5.317c-3.773-5.537-7.576-11.054-11.376-16.573q-3.408-4.95-6.811-9.903l-2.75-4-5.5-8-1.375-2-2.754-4.007-6.8-9.888a10300 10300 0 0 1-16.48-24.031 9131 9131 0 0 0-14.498-21.122q-3.422-4.976-6.843-9.952l-2.75-4-28.877-42.003-2.73-3.97a7928 7928 0 0 1-7.174-10.449l-1.506-2.195q-1.425-2.077-2.848-4.156c-2.144-3.126-4.306-6.22-6.615-9.227 1.27-2.734 2.624-4.923 4.617-7.18l1.57-1.793 1.688-1.902 3.555-4.055 1.815-2.065A960 960 0 0 0 360 243c4.148-4.85 8.317-9.68 12.5-14.5A3973 3973 0 0 0 391 207c6.689-7.82 13.397-15.62 20.142-23.392A3772 3772 0 0 0 428 164c6.689-7.82 13.397-15.62 20.142-23.392a3475 3475 0 0 0 15.374-17.874q2.991-3.494 5.985-6.985l2.973-3.47q3.962-4.63 7.948-9.236l1.687-1.955a1517 1517 0 0 1 3.235-3.734c2.515-2.376 2.515-2.376 3.656-5.354a813 813 0 0 0-13.715-.33 327 327 0 0 1-4.658-.123c-10.06-.72-10.06-.72-18.912 3.148-1.486 1.616-1.486 1.616-2.715 3.305l-2.336 2.64-2.039 2.61c-2.942 3.69-5.94 7.266-9.125 10.75a234 234 0 0 0-9 10.5c-3.611 4.464-7.387 8.73-11.254 12.973-2.308 2.597-4.502 5.261-6.683 7.964-3.86 4.773-7.935 9.294-12.09 13.81-3.22 3.585-6.232 7.32-9.258 11.07-2.88 3.489-5.922 6.813-8.969 10.156-2.308 2.597-4.502 5.261-6.683 7.964-3.86 4.773-7.935 9.294-12.09 13.81-3.22 3.585-6.232 7.32-9.258 11.07-2.171 2.63-4.417 5.162-6.715 7.683-4.708 5.168-9.098 10.571-13.5 16-1.95 2.4-3.915 4.712-6 7h-2c-1.246-1.49-1.246-1.49-2.652-3.594l-1.587-2.348-1.698-2.558-3.551-5.27-1.796-2.678c-2.42-3.598-4.878-7.17-7.341-10.74l-4.032-5.86q-3.422-4.976-6.843-9.952l-2.75-4-16.5-24-1.375-2-2.754-4.007-6.8-9.888a9850 9850 0 0 1-24.684-36.043c-5.062-7.428-10.137-14.846-15.324-22.187l-1.243-1.777c-2.092-3.034-2.092-3.034-5.07-5.098a79 79 0 0 0-4.72-.12l-3.017-.004-3.322.01h-3.489c-3.82 0-7.64.009-11.46.016l-7.928.005q-9.382.005-18.763.021-10.68.015-21.359.022-21.971.016-43.942.05"/><path fill="#E61413" d="M145 118c7.704-.203 15.408-.343 23.114-.44q3.93-.06 7.86-.164c3.77-.097 7.54-.142 11.311-.177l3.536-.125c7.978-.005 7.978-.005 11.431 2.614 1.79 2.016 3.287 4.03 4.748 6.292q1.296 1.791 2.598 3.578 1.24 1.83 2.464 3.672l2.86 4.219 1.51 2.23c2.756 4.043 5.57 8.046 8.38 12.051l1.784 2.544 3.606 5.142q4.401 6.28 8.798 12.564l3.5 5 35 50 1.75 2.5 3.504 5.007q4.337 6.195 8.676 12.388a9749 9749 0 0 1 20.604 29.531 8721 8721 0 0 0 18.248 26.122Q334.643 308.773 339 315l3.5 5 35 50 1.75 2.5 3.504 5.007q4.337 6.195 8.676 12.388a9749 9749 0 0 1 20.604 29.531A9459 9459 0 0 0 432 448q5.394 7.694 10.777 15.395 3.039 4.347 6.102 8.68l2.496 3.55 2.148 3.04C455 481 455 481 455 483q-11.184.113-22.37.165-3.804.022-7.609.061c-3.646.037-7.292.054-10.939.067l-3.435.047h-3.214l-2.82.02c-4.536-.625-7.045-2.686-9.945-6.126a255 255 0 0 1-2.48-3.484l-1.4-1.952c-1.609-2.257-3.2-4.526-4.788-6.798l-1.876-2.68a4373 4373 0 0 1-10.206-14.675q-4.986-7.19-10.043-14.332a5633 5633 0 0 1-18.093-25.765Q341.392 401.273 337 395l-3.5-5-1.75-2.5L284.5 320l-1.75-2.5-3.504-5.007q-4.337-6.196-8.676-12.388a9749 9749 0 0 1-20.604-29.531 8721 8721 0 0 0-18.248-26.122Q227.357 238.227 223 232l-3.5-5-35-50-1.75-2.5-3.502-5.004q-4.349-6.218-8.713-12.426a3211 3211 0 0 1-18.91-27.195l-2.004-2.894-1.832-2.676-1.634-2.376C145 120 145 120 145 118"/></svg>