<?xml version="1.0" encoding="UTF-8"?>
<svg version="1.1" xmlns="http://www.w3.org/2000/svg" width="600" height="600">
<path d="M0 0 C0.81622523 -0.00205263 1.63245047 -0.00410527 2.4734098 -0.0062201 C5.21402647 -0.01188366 7.95459278 -0.01043364 10.69521427 -0.00901413 C12.67785658 -0.01159814 14.66049836 -0.01461141 16.64313942 -0.01801753 C22.0961853 -0.02608671 27.54921801 -0.02787706 33.00226915 -0.028615 C38.88185471 -0.03046573 44.76143344 -0.03801324 50.64101505 -0.04475021 C64.17139311 -0.05904256 77.70176935 -0.06486039 91.23215355 -0.06944216 C97.92163621 -0.07177935 104.61111801 -0.07538217 111.3006 -0.07913754 C134.20927706 -0.09197313 157.11795364 -0.10269159 180.02663422 -0.10614014 C181.46441651 -0.10636177 182.90219879 -0.10658355 184.33998108 -0.10680549 C185.78119769 -0.10702613 187.2224143 -0.10724661 188.6636309 -0.10746694 C191.55486039 -0.10790948 194.44608988 -0.1083566 197.33731937 -0.10880661 C198.05417485 -0.108916 198.77103032 -0.10902539 199.50960869 -0.1091381 C222.74255024 -0.11276701 245.97546056 -0.12868074 269.20839016 -0.15199697 C293.78387858 -0.17661537 318.35934916 -0.19031394 342.93485028 -0.19150805 C345.63482861 -0.1916795 348.33480694 -0.19189493 351.03478527 -0.19214249 C351.69957346 -0.19219826 352.36436164 -0.19225402 353.04929492 -0.19231148 C363.06922525 -0.19338922 373.08912536 -0.20273677 383.10904598 -0.21632767 C394.51419167 -0.23174295 405.91928384 -0.23684071 417.32443797 -0.22858956 C423.14091863 -0.22468796 428.95729155 -0.2255888 434.77375889 -0.23964691 C440.10543567 -0.25241512 445.43692408 -0.25116262 450.76860071 -0.2390562 C452.69061542 -0.23710425 454.61264361 -0.24015425 456.53463941 -0.24890056 C478.99931871 -0.34460209 498.68624413 3.58829267 515.86588383 19.16267776 C528.38208087 32.06280723 533.94500299 49.86130913 533.91026115 67.50687695 C533.91261338 68.32733318 533.91496561 69.1477894 533.91738912 69.99310794 C533.9240456 72.74210375 533.92362192 75.49105192 533.9232111 78.24005508 C533.92651181 80.23109749 533.93023781 82.22213923 533.93435258 84.21318012 C533.94435707 89.68483759 533.94808687 95.15648408 533.95074189 100.62814939 C533.95464951 106.52955107 533.9642275 112.43094409 533.97295475 118.33234024 C533.99177224 131.91044224 534.00197307 145.48854575 534.01041543 159.06665738 C534.01462571 165.78062411 534.01984719 172.49458996 534.02509996 179.20855595 C534.04298832 202.20391656 534.05798291 225.19927744 534.06542015 248.19464397 C534.0658949 249.63762681 534.06637079 251.08060964 534.06684781 252.52359248 C534.06720238 253.59694529 534.06720238 253.59694529 534.0675641 254.69198199 C534.06876526 258.31722369 534.06998073 261.94246538 534.07120609 265.56770706 C534.07144624 266.28713858 534.07168639 267.00657009 534.07193382 267.74780256 C534.0798236 291.06408489 534.10324973 314.3803163 534.13576204 337.6965764 C534.17009539 362.36397073 534.18977454 387.03133528 534.19306439 411.69875389 C534.19348191 414.40912602 534.19396147 417.11949812 534.19448757 419.82987022 C534.19461076 420.49721079 534.19473396 421.16455135 534.19486088 421.85211435 C534.19704461 431.9077268 534.21039694 441.96328353 534.22952557 452.01887703 C534.25124995 463.46533529 534.25927435 474.91170052 534.24955878 486.35817706 C534.24501926 492.19507366 534.24688042 498.03177835 534.26632023 503.86864853 C534.28398899 509.22012197 534.2829239 514.57126403 534.26742294 519.92274118 C534.26505253 521.85080252 534.2693407 523.77888704 534.28125159 525.70691305 C534.40090676 546.36814828 530.88645091 564.49688811 516.00260258 579.92830276 C514.90045414 581.01884964 514.90045414 581.01884964 513.77604008 582.13142776 C513.18564945 582.75533401 512.59525883 583.37924026 511.98697758 584.02205276 C507.82073974 588.09652325 503.11164665 590.75099074 497.96354008 593.38142776 C497.32408451 593.71094437 496.68462894 594.04046097 496.02579594 594.37996292 C483.83622148 600.32646774 472.24158679 600.56570499 458.95861149 600.52583694 C456.93936534 600.53073008 454.92012199 600.53692183 452.90088338 600.54429483 C447.36981256 600.56066401 441.83888457 600.55838254 436.30779803 600.55291986 C430.33556003 600.55024593 424.36335978 600.56478836 418.39113712 600.57701492 C406.69710144 600.59805623 395.00310434 600.60262926 383.30905376 600.60082704 C373.80143765 600.59945229 364.29383657 600.6032798 354.78622341 600.61075211 C353.41873144 600.61180246 352.05123947 600.61285007 350.6837475 600.61389497 C349.66546618 600.61467399 349.66546618 600.61467399 348.62661353 600.61546874 C347.94649358 600.61598888 347.26637362 600.61650902 346.56564397 600.61704493 C345.54371278 600.61783091 345.54371278 600.61783091 344.50113652 600.61863278 C325.34655424 600.63321039 306.19197747 600.64150114 287.03738976 600.63688278 C286.3157179 600.63671083 285.59404604 600.63653887 284.85050534 600.63636171 C281.19306268 600.63547286 277.53562003 600.63452805 273.87817738 600.6335637 C273.15184184 600.63337266 272.4255063 600.63318163 271.67716059 600.63298481 C270.20833402 600.63259772 268.73950745 600.63220739 267.27068087 600.63181383 C244.42354892 600.62584586 221.57651832 600.64127542 198.72940922 600.67341995 C173.0396705 600.70953354 147.34999603 600.72882455 121.66023034 600.72388124 C118.91846542 600.7234113 116.1767005 600.72300104 113.43493557 600.72262955 C112.75988211 600.72252716 112.08482864 600.72242477 111.38931901 600.72231929 C101.21868498 600.72112669 91.04812059 600.73306239 80.8775053 600.75177383 C69.30303149 600.7730582 57.72870049 600.77635411 46.15421925 600.75747424 C40.25245491 600.74833168 34.35098035 600.74712837 28.44923878 600.7678299 C23.03863877 600.78659819 17.62856469 600.78197053 12.21798434 600.75928408 C10.26851163 600.75511311 8.31899813 600.75924726 6.36956862 600.77288002 C-14.40206827 600.90816057 -32.87997065 595.94710603 -48.22395992 581.13142776 C-62.56471818 564.42493217 -66.99173888 546.23699554 -66.86560726 524.84643936 C-66.8720956 522.82516198 -66.88075578 520.80389061 -66.89138156 518.78263074 C-66.91407366 513.26436399 -66.90585531 507.74652179 -66.89224231 502.22824132 C-66.88295481 496.26283467 -66.90250091 490.29751018 -66.91821957 484.33212662 C-66.94276 473.33295723 -66.94451882 462.33391033 -66.93409164 451.33472494 C-66.92448314 441.1697936 -66.92380596 431.00491192 -66.93197727 420.83997917 C-66.9330431 419.47361791 -66.93410864 418.10725665 -66.9351739 416.74089539 C-66.93679507 414.681613 -66.93842738 412.62233063 -66.94008693 410.56304827 C-66.95533147 391.4313191 -66.96086381 372.29960653 -66.94548988 353.16787624 C-66.94491112 352.44751889 -66.94433235 351.72716153 -66.94373604 350.98497517 C-66.9389719 345.13611508 -66.93391365 339.28725525 -66.92883831 333.43839543 C-66.90925109 310.63084878 -66.91844601 287.82347923 -66.95125484 265.01594925 C-66.98808677 239.35764501 -67.0051129 213.69944441 -66.99184257 188.04111367 C-66.99048519 185.30218369 -66.98918511 182.56325368 -66.98791599 179.82432365 C-66.98758803 179.14999104 -66.98726007 178.47565842 -66.98692216 177.78089149 C-66.9823564 167.62792287 -66.99294231 157.47504313 -67.01116657 147.32209206 C-67.03185201 135.76750426 -67.03055905 124.21313382 -67.00253417 112.6585569 C-66.98880097 106.76863037 -66.98449246 100.8791152 -67.00648403 94.98920441 C-67.02638664 89.58720215 -67.01811574 84.18597055 -66.98828969 78.7840207 C-66.98232941 76.84002035 -66.98626708 74.89595615 -67.00165292 72.95200755 C-67.14785644 53.01091469 -62.15865752 33.99292562 -48.22786617 19.00252151 C-34.70538484 6.37626702 -18.43807779 -0.04331348 0 0 Z M31.77604008 92.13142776 C32.96714973 95.18417474 34.09561699 97.84733358 36.03385258 100.49470901 C36.48663578 101.12232132 36.93941898 101.74993362 37.40592289 102.39656448 C37.89931156 103.07219437 38.39270023 103.74782425 38.90104008 104.44392776 C44.8069407 112.65756547 50.42927573 121.04247358 55.99137211 129.49202347 C59.79443986 135.24581517 63.73003351 140.866071 67.81168461 146.42537308 C71.0034475 150.82227835 74.04364477 155.31964526 77.08854008 159.81892776 C78.40209855 161.75268702 79.71590225 163.68627971 81.02994633 165.61970901 C81.66690434 166.55766312 82.30386234 167.49561722 82.96012211 168.46199417 C85.47012118 172.15174005 87.99539415 175.8308228 90.52604008 179.50642776 C90.96407963 180.14282181 91.40211918 180.77921585 91.85343266 181.43489456 C92.72399398 182.69938529 93.59467941 183.96379058 94.4654932 185.22810745 C96.73759069 188.52789732 99.00661921 191.82979677 101.27604008 195.13142776 C102.19269294 196.46477059 103.10935959 197.79810394 104.02604008 199.13142776 C120.52604008 223.13142776 120.52604008 223.13142776 121.89981937 225.12971878 C122.82047223 226.46880567 123.74120848 227.80783523 124.66202641 229.14680862 C126.89337699 232.39165779 129.12347955 235.63734578 131.35025883 238.88533401 C136.75222967 246.76041053 142.19170621 254.60849737 147.65104008 262.44392776 C153.7249965 271.16297113 159.75309926 279.91162208 165.74088383 288.69002151 C168.22518577 292.3310691 170.72779868 295.95906046 173.2364893 299.58333206 C175.02530222 302.17331336 176.80220865 304.77124844 178.57437992 307.3726387 C179.71335987 309.03968696 180.86352541 310.69907677 182.01432133 312.35799026 C182.97918461 313.79271683 182.97918461 313.79271683 183.96354008 315.25642776 C184.51396976 316.06338089 185.06439945 316.87033401 185.63150883 317.70174026 C187.09669068 320.81212631 187.25123682 322.72585114 186.77604008 326.13142776 C185.12369633 328.77205276 185.12369633 328.77205276 182.83854008 331.38142776 C182.01482914 332.33533401 181.1911182 333.28924026 180.34244633 334.27205276 C179.49553226 335.21564651 178.6486182 336.15924026 177.77604008 337.13142776 C176.64488773 338.39213089 176.64488773 338.39213089 175.49088383 339.67830276 C174.00523131 341.32378739 172.51559178 342.9656804 171.02213383 344.60408401 C168.7141641 347.20105169 166.52048145 349.86546789 164.33854008 352.56892776 C160.47778871 357.34283076 156.40166932 361.86531204 152.24479008 366.38142776 C149.83225904 369.06880411 147.54347797 371.8210822 145.27604008 374.63142776 C141.43884977 379.38738195 137.38218907 383.88647577 133.24479008 388.38142776 C130.83225904 391.06880411 128.54347797 393.8210822 126.27604008 396.63142776 C123.22255329 400.41603111 120.06935707 404.05350313 116.77604008 407.63142776 C112.66225099 412.10127897 108.80516711 416.7218767 104.99088383 421.44783401 C102.11123121 424.93693692 99.06910132 428.26139697 96.02213383 431.60408401 C93.7141641 434.20105169 91.52048145 436.86546789 89.33854008 439.56892776 C85.47895405 444.3413898 81.40404017 448.86251885 77.24869633 453.37752151 C74.02894489 456.9635006 71.01698832 460.69844269 67.99088383 464.44783401 C65.81971181 467.07851334 63.57362651 469.61085201 61.27604008 472.13142776 C57.35957585 476.42865935 53.68840402 480.88442707 50.03385258 485.40486526 C47.80811852 488.09268944 45.50421745 490.67989796 43.15104008 493.25642776 C35.98995878 500.02545946 35.98995878 500.02545946 31.77604008 508.13142776 C36.18666177 508.30575307 40.59540992 508.43207826 45.00846195 508.51594925 C46.50621346 508.55094194 48.00372948 508.59855603 49.50064945 508.65950394 C59.61219548 509.30916584 59.61219548 509.30916584 68.41666508 505.04549026 C69.5776626 503.77733113 70.69996059 502.47239599 71.77604008 501.13142776 C72.31100101 500.55175247 72.84596195 499.97207718 73.39713383 499.37483597 C74.99185074 497.6450111 76.51221771 495.86976719 78.02604008 494.06892776 C78.85446415 493.09838455 78.85446415 493.09838455 79.69962406 492.10823441 C80.83992719 490.77162428 81.97787763 489.43300334 83.11344242 488.09236526 C85.18339559 485.65097557 87.26890788 483.2232096 89.35514164 480.79573441 C91.33731832 478.48830589 93.31459651 476.17670223 95.29215336 473.86531448 C98.28529424 470.36789979 101.28226238 466.87376386 104.27848148 463.37898636 C106.76718299 460.47590594 109.25501559 457.57209107 111.74088383 454.66658401 C117.44331838 448.00373943 123.16989697 441.36271071 128.91812992 434.73933792 C134.56611115 428.22788509 140.1728532 421.68142378 145.77604008 415.13142776 C152.46572642 407.31133898 159.17436841 399.50876562 165.92032719 391.73714066 C170.04898984 386.97794101 174.1539327 382.19896281 178.24771976 377.40974808 C180.86379155 374.3522034 183.4909751 371.30511309 186.13541508 368.27205276 C186.6970435 367.62760208 187.25867191 366.9831514 187.83731937 366.31917191 C188.95037706 365.04197965 190.06381221 363.76511625 191.17765141 362.4886055 C195.04197849 358.03782865 198.72238736 353.48688049 202.28775883 348.79158401 C202.77889164 348.24373245 203.27002445 347.69588089 203.77604008 347.13142776 C204.43604008 347.13142776 205.09604008 347.13142776 205.77604008 347.13142776 C207.02188969 348.62166214 207.02188969 348.62166214 208.42838383 350.72517776 C208.95190434 351.50014603 209.47542484 352.27511429 210.01480961 353.07356644 C210.57539066 353.91766068 211.13597172 354.76175491 211.71354008 355.63142776 C212.89690008 357.38809567 214.08049746 359.14460368 215.26432133 360.90095901 C215.85680668 361.78477249 216.44929203 362.66858597 217.05973148 363.57918167 C219.47975349 367.17788865 221.93809748 370.7495238 224.40104008 374.31892776 C225.29964272 375.62480372 226.19808059 376.93079308 227.09635258 378.23689651 C227.53753422 378.87804398 227.97871586 379.51919144 228.43326664 380.17976761 C230.71512527 383.49634541 232.99549763 386.81394487 235.27604008 390.13142776 C236.19269984 391.46476585 237.1093665 392.79809918 238.02604008 394.13142776 C247.19270674 407.4647611 256.35937341 420.79809443 265.52604008 434.13142776 C265.97962894 434.79118607 266.43321781 435.45094437 266.9005518 436.13069534 C267.81887369 437.46645109 268.73716788 438.80222589 269.65543461 440.13801956 C271.92155164 443.43444521 274.18812067 446.73055804 276.45572758 450.02595901 C281.3633344 457.15902549 286.2618667 464.29821284 291.15104008 471.44392776 C291.68978764 472.23033646 292.22853519 473.01674515 292.78360844 473.82698441 C295.6281989 477.98134473 298.46200719 482.14252981 301.27994633 486.31502151 C301.85502934 487.16346634 302.43011234 488.01191116 303.02262211 488.88606644 C304.11433117 490.49714908 305.20278821 492.1104424 306.28727055 493.72639847 C311.47264261 502.02632269 311.47264261 502.02632269 318.77604008 508.13142776 C320.34724227 508.2239783 321.92236068 508.25335311 323.49628544 508.25168228 C324.49190495 508.25305695 325.48752445 508.25443161 326.51331425 508.25584793 C327.60951084 508.25225266 328.70570744 508.24865738 329.83512211 508.24495316 C330.98633549 508.24509918 332.13754887 508.24524521 333.3236475 508.24539566 C337.14373477 508.24469681 340.96377378 508.23690566 344.78385258 508.22908401 C347.42658302 508.22721974 350.06931381 508.22579588 352.71204472 508.2247963 C358.96644631 508.22168525 365.22083047 508.21347491 371.47522438 508.20344681 C378.59484267 508.19227865 385.71446179 508.18677344 392.83408666 508.18175137 C407.48141346 508.17129211 422.12872653 508.15369704 436.77604008 508.13142776 C435.68675861 506.40841076 434.59596264 504.68635117 433.5045557 502.96467972 C432.89728642 502.00560211 432.29001713 501.04652451 431.66434574 500.05838394 C428.65521525 495.39410037 425.46747423 490.85952788 422.27604008 486.31892776 C416.79098132 478.47571049 411.34621372 470.60778912 405.96354008 462.69392776 C405.34188969 461.78006302 404.7202393 460.86619827 404.07975101 459.92464066 C402.87416448 458.15227479 401.66859738 456.3798957 400.4630518 454.60750198 C396.69021116 449.06999841 392.88739923 443.55307026 389.08658695 438.03474808 C386.81448946 434.73495821 384.54546094 431.43305876 382.27604008 428.13142776 C381.35938722 426.79808494 380.44272057 425.46475159 379.52604008 424.13142776 C377.69270674 421.4647611 375.85937341 418.79809443 374.02604008 416.13142776 C373.57245121 415.47166946 373.11886234 414.81191116 372.65152836 414.13216019 C371.73320647 412.79640444 370.81491228 411.46062964 369.89664555 410.12483597 C367.63052851 406.82841032 365.36395948 403.53229749 363.09635258 400.23689651 C357.59085544 392.23472044 352.0996962 384.22287781 346.61686039 376.20515823 C341.79569509 369.15652873 336.95973434 362.11815877 332.11881351 355.08308792 C329.83695488 351.76651012 327.55658252 348.44891066 325.27604008 345.13142776 C324.35938032 343.79808968 323.44271365 342.46475635 322.52604008 341.13142776 C295.02604008 301.13142776 295.02604008 301.13142776 293.64908695 299.12849808 C292.73904138 297.80485427 291.82888642 296.48128566 290.9186182 295.15779495 C288.52471288 291.67684366 286.13312782 288.19432689 283.74479008 284.70955276 C283.24785648 283.98509964 282.75092289 283.26064651 282.2389307 282.51424026 C281.28900797 281.12930619 280.33975037 279.74391559 279.39127445 278.35799026 C277.2467784 275.23287758 275.08483293 272.13893424 272.77604008 269.13142776 C274.04540955 266.39780023 275.40012674 264.20862355 277.39322758 261.95174026 C277.9114307 261.36006058 278.42963383 260.76838089 278.96354008 260.15877151 C279.52041508 259.53099808 280.07729008 258.90322464 280.65104008 258.25642776 C281.83632325 256.90520494 283.02121052 255.55363474 284.20572758 254.20174026 C284.80481937 253.52014847 285.40391117 252.83855667 286.02115726 252.13631058 C288.63040314 249.15535243 291.20393094 246.14442069 293.77604008 243.13142776 C297.92406533 238.28178741 302.09278753 233.45070861 306.27604008 228.63142776 C312.4732952 221.49081167 318.62993762 214.31607955 324.77604008 207.13142776 C331.46505681 199.31212173 338.17352764 191.5107723 344.91812992 183.73933792 C350.56611115 177.22788509 356.1728532 170.68142378 361.77604008 164.13142776 C368.46505681 156.31212173 375.17352764 148.5107723 381.91812992 140.73933792 C387.06765757 134.80254299 392.18304242 128.83689321 397.29215336 122.86531448 C399.2857065 120.53589454 401.28108946 118.20804648 403.2767725 115.8804512 C404.2681957 114.72387153 405.25925015 113.56697565 406.24991703 112.40974808 C408.89162312 109.324633 411.54022362 106.2457569 414.19791508 103.17439651 C414.75479008 102.52922073 415.31166508 101.88404495 415.88541508 101.21931839 C416.96154483 99.97280142 418.03960632 98.72794896 419.11979008 97.48494339 C421.63455125 95.10990033 421.63455125 95.10990033 422.77604008 92.13142776 C418.2046499 91.9822734 413.63469778 91.8738426 409.06144047 91.80183792 C407.5084549 91.77180201 405.95563705 91.73095876 404.40323734 91.67879105 C394.3434692 90.95782586 394.3434692 90.95782586 385.49088383 94.82674026 C384.004742 96.44246647 384.004742 96.44246647 382.77604008 98.13142776 C381.61975101 99.43853714 381.61975101 99.43853714 380.44010258 100.77205276 C379.76721195 101.63314651 379.09432133 102.49424026 378.40104008 103.38142776 C375.45881986 107.07167007 372.460245 110.64766349 369.27604008 114.13142776 C366.16145339 117.54882149 363.18417388 121.03665126 360.27604008 124.63142776 C356.66454874 129.09563234 352.88943313 133.3614489 349.02213383 137.60408401 C346.7141641 140.20105169 344.52048145 142.86546789 342.33854008 145.56892776 C338.47895405 150.3413898 334.40404017 154.86251885 330.24869633 159.37752151 C327.02894489 162.9635006 324.01698832 166.69844269 320.99088383 170.44783401 C318.11123121 173.93693692 315.06910132 177.26139697 312.02213383 180.60408401 C309.7141641 183.20105169 307.52048145 185.86546789 305.33854008 188.56892776 C301.47895405 193.3413898 297.40404017 197.86251885 293.24869633 202.37752151 C290.02894489 205.9635006 287.01698832 209.69844269 283.99088383 213.44783401 C281.81971181 216.07851334 279.57362651 218.61085201 277.27604008 221.13142776 C272.56781212 226.29979667 268.1785147 231.70281243 263.77604008 237.13142776 C261.82589962 239.53160064 259.8605469 241.84355443 257.77604008 244.13142776 C257.11604008 244.13142776 256.45604008 244.13142776 255.77604008 244.13142776 C254.53019047 242.64119339 254.53019047 242.64119339 253.12369633 240.53767776 C252.60017582 239.7627095 252.07665531 238.98774124 251.53727055 238.18928909 C250.97668949 237.34519485 250.41610844 236.50110062 249.83854008 235.63142776 C248.65518008 233.87475986 247.4715827 232.11825185 246.28775883 230.36189651 C245.69527348 229.47808304 245.10278812 228.59426956 244.49234867 227.68367386 C242.07232666 224.08496688 239.61398268 220.51333173 237.15104008 216.94392776 C236.25243743 215.6380518 235.35399956 214.33206245 234.45572758 213.02595901 C234.01454594 212.38481155 233.5733643 211.74366409 233.11881351 211.08308792 C230.83695488 207.76651012 228.55658252 204.44891066 226.27604008 201.13142776 C225.35938032 199.79808968 224.44271365 198.46475635 223.52604008 197.13142776 C218.02604008 189.13142776 212.52604008 181.13142776 207.02604008 173.13142776 C206.57245121 172.47166946 206.11886234 171.81191116 205.65152836 171.13216019 C204.73320647 169.79640444 203.81491228 168.46062964 202.89664555 167.12483597 C200.63052851 163.82841032 198.36395948 160.53229749 196.09635258 157.23689651 C191.18874655 150.1038312 186.2898206 142.96491058 181.40104008 135.81892776 C180.85939213 135.02744339 180.31774418 134.23595901 179.75968266 133.42049026 C176.97326863 129.34775384 174.19030503 125.27271766 171.41275883 121.19392776 C166.35101566 113.7658474 161.27587662 106.34757631 156.08854008 99.00642776 C155.6783765 98.42014603 155.26821293 97.83386429 154.84562016 97.22981644 C152.7541998 94.19524864 152.7541998 94.19524864 149.77604008 92.13142776 C148.20483788 92.03887723 146.62971947 92.00950242 145.05579472 92.01117325 C144.06017521 92.00979858 143.0645557 92.00842392 142.03876591 92.0070076 C140.94256931 92.01060287 139.84637272 92.01419815 138.71695805 92.01790237 C137.56574467 92.01775635 136.41453129 92.01761032 135.22843266 92.01745987 C131.40834539 92.01815872 127.58830637 92.02594987 123.76822758 92.03377151 C121.12549714 92.03563579 118.48276635 92.03705965 115.84003544 92.03805923 C109.58563385 92.04117028 103.33124969 92.04938062 97.07685578 92.05940872 C89.95723748 92.07057688 82.83761837 92.07608209 75.7179935 92.08110416 C61.07066669 92.09156342 46.42335363 92.10915849 31.77604008 92.13142776 Z " fill="#E61413" transform="translate(66.22395992279053,-0.13142776489257813)"/>
<path d="M0 0 C7.70421161 -0.20321382 15.40773 -0.34309447 23.11401367 -0.43945312 C25.73406805 -0.47962956 28.35394368 -0.53418267 30.97338867 -0.60351562 C34.74442656 -0.70081427 38.51309016 -0.74598781 42.28515625 -0.78125 C44.03554955 -0.84318542 44.03554955 -0.84318542 45.82130432 -0.90637207 C53.79939729 -0.91075213 53.79939729 -0.91075213 57.25215149 1.70843506 C59.04286526 3.72447948 60.53877492 5.73708593 62 8 C62.8639818 9.19408801 63.72953063 10.38704623 64.59765625 11.578125 C65.42419323 12.79876464 66.24563535 14.02286648 67.0625 15.25 C68.0147216 16.65686188 68.96789256 18.06308154 69.921875 19.46875 C70.42009766 20.20480469 70.91832031 20.94085938 71.43164062 21.69921875 C74.18770723 25.74236503 77.00152871 29.74492217 79.8125 33.75 C80.4010376 34.58950195 80.9895752 35.42900391 81.59594727 36.29394531 C82.79762502 38.00797135 83.99953032 39.72183788 85.20166016 41.43554688 C88.13724984 45.62173125 91.06843609 49.81099592 94 54 C95.16664481 55.66668197 96.3333115 57.33334862 97.5 59 C109.16666667 75.66666667 120.83333333 92.33333333 132.5 109 C133.3660083 110.23713745 133.3660083 110.23713745 134.24951172 111.49926758 C135.41784967 113.16834507 136.58614384 114.83745322 137.75439453 116.5065918 C140.64513489 120.63662338 143.53659854 124.76614446 146.4296875 128.89453125 C153.31728062 138.72500507 160.18294378 148.57042296 167.03417969 158.42626953 C173.09800618 167.14686679 179.18658311 175.84996444 185.28222656 184.54833984 C188.1896209 188.69786428 191.09468001 192.84902306 194 197 C195.16665575 198.66667431 196.33332241 200.33334098 197.5 202 C209.16666667 218.66666667 220.83333333 235.33333333 232.5 252 C233.07733887 252.8247583 233.65467773 253.6495166 234.24951172 254.49926758 C235.41784967 256.16834507 236.58614384 257.83745322 237.75439453 259.5065918 C240.64513489 263.63662338 243.53659854 267.76614446 246.4296875 271.89453125 C253.31728062 281.72500507 260.18294378 291.57042296 267.03417969 301.42626953 C273.66767465 310.96612659 280.3314029 320.48466246 287 330 C290.59490481 335.12979716 294.18904939 340.26010719 297.77734375 345.39453125 C299.8033583 348.29338289 301.83681193 351.18667592 303.87890625 354.07421875 C304.71101242 355.25775983 305.54304935 356.4413496 306.375 357.625 C307.08398438 358.62789063 307.79296875 359.63078125 308.5234375 360.6640625 C310 363 310 363 310 365 C302.54360492 365.07608273 295.08731 365.12861377 287.63061523 365.16479492 C285.09411885 365.17987863 282.55764852 365.20034831 280.02124023 365.22631836 C276.37477178 365.26271881 272.72864827 365.27973082 269.08203125 365.29296875 C267.38177544 365.31619453 267.38177544 365.31619453 265.64717102 365.33988953 C264.58644882 365.34011612 263.52572662 365.34034271 262.43286133 365.34057617 C261.03720695 365.35056892 261.03720695 365.35056892 259.61335754 365.36076355 C255.0772458 364.73457148 252.56800972 362.67361957 249.66796875 359.234375 C248.8310566 358.08016546 248.00495948 356.91806746 247.1875 355.75 C246.72593506 355.10595215 246.26437012 354.4619043 245.78881836 353.79833984 C244.17924884 351.54132668 242.58795207 349.27227296 241 347 C240.38092773 346.11538086 239.76185547 345.23076172 239.12402344 344.31933594 C235.71108469 339.43527382 232.31091119 334.5425018 228.91796875 329.64453125 C225.59466132 324.84973759 222.24567332 320.07408198 218.875 315.3125 C212.81323967 306.74596486 206.79600639 298.14860335 200.78222656 289.54833984 C197.85623267 285.3645694 194.9280169 281.18235476 192 277 C190.83332241 275.33334098 189.66665575 273.66667431 188.5 272 C187.9225 271.175 187.345 270.35 186.75 269.5 C171 247 155.25 224.5 139.5 202 C138.92266113 201.1752417 138.34532227 200.3504834 137.75048828 199.50073242 C136.58215033 197.83165493 135.41385616 196.16254678 134.24560547 194.4934082 C131.35486511 190.36337662 128.46340146 186.23385554 125.5703125 182.10546875 C118.68271938 172.27499493 111.81705622 162.42957704 104.96582031 152.57373047 C98.90199382 143.85313321 92.81341689 135.15003556 86.71777344 126.45166016 C83.8103791 122.30213572 80.90531999 118.15097694 78 114 C76.83334425 112.33332569 75.66667759 110.66665902 74.5 109 C62.83333333 92.33333333 51.16666667 75.66666667 39.5 59 C38.92258057 58.17516113 38.34516113 57.35032227 37.75024414 56.50048828 C36.58258892 54.83231632 35.41510868 53.16402186 34.24780273 51.49560547 C31.34767708 47.35095202 28.4446286 43.20841112 25.53515625 39.0703125 C19.18713128 30.03610445 12.87951258 20.97422797 6.625 11.875 C5.9637915 10.91996582 5.30258301 9.96493164 4.62133789 8.98095703 C4.01668701 8.09778809 3.41203613 7.21461914 2.7890625 6.3046875 C2.24975098 5.52077637 1.71043945 4.73686523 1.15478516 3.92919922 C0 2 0 2 0 0 Z " fill="#E61413" transform="translate(145,118)"/>
</svg>
